<?xml version="1.0" standalone="no"?>
<!DOCTYPE svg PUBLIC "-//W3C//DTD SVG 20010904//EN"
 "http://www.w3.org/TR/2001/REC-SVG-20010904/DTD/svg10.dtd">
<svg version="1.0" xmlns="http://www.w3.org/2000/svg"
 width="152.000000pt" height="152.000000pt" viewBox="0 0 152.000000 152.000000"
 preserveAspectRatio="xMidYMid meet">
<metadata>
Created by potrace 1.16, written by Peter Selinger 2001-2019
</metadata>
<g transform="translate(0.000000,152.000000) scale(0.100000,-0.100000)"
fill="#000000" stroke="none">
<path d="M0 760 l0 -760 760 0 760 0 0 760 0 760 -760 0 -760 0 0 -760z m915
385 l40 -20 3 -83 c2 -58 -1 -89 -10 -100 -26 -31 -91 -52 -165 -52 -58 0 -73
-3 -73 -15 0 -8 7 -15 15 -15 16 0 19 -27 9 -79 -5 -21 -12 -31 -25 -31 -18 0
-25 -21 -31 -94 -3 -26 1 -31 32 -39 74 -19 120 -39 120 -53 0 -12 -36 -14
-215 -14 -236 0 -242 2 -180 55 33 28 37 37 55 139 29 158 35 145 -67 148
l-88 3 -3 124 c-1 69 0 131 3 139 4 11 53 13 272 10 244 -3 272 -5 308 -23z
m231 -50 c15 -23 22 -24 112 -27 l97 -3 0 -30 0 -30 -97 -3 c-90 -3 -97 -4
-112 -27 -15 -22 -23 -25 -81 -25 l-65 0 0 85 0 85 65 0 c58 0 66 -3 81 -25z
m-318 -672 l-3 -88 -210 0 -210 0 -3 88 -3 87 216 0 216 0 -3 -87z"/>
</g>
</svg>
